<?xml version="1.0" standalone="no"?>
<!DOCTYPE svg PUBLIC "-//W3C//DTD SVG 20010904//EN"
 "http://www.w3.org/TR/2001/REC-SVG-20010904/DTD/svg10.dtd">
<svg version="1.0" xmlns="http://www.w3.org/2000/svg"
 width="512.000000pt" height="512.000000pt" viewBox="0 0 512.000000 512.000000"
 preserveAspectRatio="xMidYMid meet">

<g transform="translate(0.000000,512.000000) scale(0.100000,-0.100000)"
fill="#000000" stroke="none">
<path d="M2380 4954 c-537 -51 -997 -242 -1386 -578 -441 -380 -717 -883 -810
-1478 -25 -158 -25 -518 0 -676 74 -473 259 -879 561 -1230 382 -445 916 -731
1515 -814 123 -17 478 -16 600 1 293 40 579 131 819 259 1112 591 1578 1920
1080 3079 -376 877 -1264 1454 -2219 1441 -69 0 -141 -3 -160 -4z m381 -324
c727 -74 1364 -520 1675 -1175 274 -577 270 -1245 -12 -1814 -436 -881 -1424
-1337 -2375 -1096 -284 72 -569 214 -794 396 -762 614 -993 1690 -549 2559
390 765 1209 1215 2055 1130z"/>
<path d="M2495 3826 c-73 -33 -95 -83 -95 -212 l0 -94 -63 0 c-160 0 -304 -58
-411 -166 -219 -219 -219 -571 1 -789 76 -76 190 -137 287 -154 33 -6 185 -11
339 -11 190 0 293 -4 321 -12 86 -26 166 -136 166 -228 0 -92 -80 -202 -166
-228 -29 -8 -151 -12 -417 -12 l-375 0 -4 109 c-3 118 -12 141 -72 185 -39 29
-133 29 -172 0 -68 -51 -69 -53 -69 -294 0 -241 1 -243 69 -294 26 -20 43 -21
296 -24 l268 -3 4 -109 c3 -117 12 -140 72 -184 39 -29 133 -29 172 0 60 44
69 67 72 185 l4 109 71 0 c254 1 472 160 548 400 15 46 21 93 21 160 1 242
-143 445 -378 532 -55 20 -82 22 -394 27 -379 7 -378 7 -449 87 -58 66 -74
142 -49 228 16 55 99 138 154 154 29 8 151 12 417 12 l375 0 4 -109 c3 -118
12 -141 72 -185 39 -29 133 -29 172 0 68 51 69 53 69 294 0 241 -1 243 -69
294 -26 20 -43 21 -296 24 l-268 3 -4 109 c-3 117 -12 140 -70 183 -34 25
-113 32 -153 13z"/>
</g>
</svg>
