<?xml version="1.0" standalone="no"?>
<!DOCTYPE svg PUBLIC "-//W3C//DTD SVG 20010904//EN"
 "http://www.w3.org/TR/2001/REC-SVG-20010904/DTD/svg10.dtd">
<svg version="1.0" xmlns="http://www.w3.org/2000/svg"
 width="512.000000pt" height="512.000000pt" viewBox="0 0 512.000000 512.000000"
 preserveAspectRatio="xMidYMid meet">

<g transform="translate(0.000000,512.000000) scale(0.100000,-0.100000)"
fill="#000000" stroke="none">
<path d="M4757 5015 c-197 -56 -360 -105 -363 -108 -8 -8 38 -157 48 -157 5 0
64 16 130 35 67 19 123 33 125 32 6 -7 -888 -888 -987 -973 -616 -529 -1323
-891 -2104 -1079 -417 -101 -735 -135 -1253 -135 l-343 0 0 -85 0 -85 333 0
c551 0 878 36 1325 146 803 197 1527 571 2162 1118 58 49 307 290 554 535 246
246 445 437 442 425 -55 -184 -73 -256 -62 -259 44 -15 150 -44 152 -42 7 8
205 719 202 726 -2 5 -164 -38 -361 -94z"/>
<path d="M4682 4078 c-221 -222 -449 -446 -506 -498 l-104 -95 -1 -1742 -1
-1743 510 0 510 0 0 2240 c0 1232 -1 2240 -3 2240 -1 0 -183 -181 -405 -402z
m238 -1958 l0 -1950 -340 0 -340 0 0 1615 0 1616 338 334 c185 184 338 334
340 335 1 0 2 -877 2 -1950z"/>
<path d="M3675 3164 c-227 -164 -495 -326 -758 -459 l-197 -100 0 -1302 0
-1303 505 0 505 0 0 1600 c0 880 -1 1600 -3 1600 -1 0 -25 -16 -52 -36z m-115
-1639 l0 -1355 -335 0 -335 0 0 1164 0 1164 153 80 c153 79 339 186 452 261
33 22 61 40 63 40 1 1 2 -609 2 -1354z"/>
<path d="M2315 2443 c-189 -72 -553 -172 -810 -223 l-140 -27 -3 -1097 -2
-1096 510 0 510 0 0 1230 c0 978 -3 1230 -12 1229 -7 0 -31 -7 -53 -16z m-105
-1243 l0 -1030 -340 0 -340 0 0 940 0 939 38 9 c20 6 91 22 157 37 123 27 410
106 455 124 14 5 26 10 28 10 1 1 2 -462 2 -1029z"/>
<path d="M935 2139 c-38 -5 -262 -11 -498 -15 l-427 -7 0 -1058 0 -1059 505 0
505 0 0 1075 c0 591 -3 1074 -7 1073 -5 0 -39 -5 -78 -9z m-85 -1074 l0 -895
-335 0 -335 0 0 890 0 890 268 3 c147 1 297 3 335 5 l67 2 0 -895z"/>
</g>
</svg>
