<?xml version="1.0" standalone="no"?>
<!DOCTYPE svg PUBLIC "-//W3C//DTD SVG 20010904//EN"
 "http://www.w3.org/TR/2001/REC-SVG-20010904/DTD/svg10.dtd">
<svg version="1.0" xmlns="http://www.w3.org/2000/svg"
 width="512.000000pt" height="512.000000pt" viewBox="0 0 512.000000 512.000000"
 preserveAspectRatio="xMidYMid meet">

<g transform="translate(0.000000,512.000000) scale(0.100000,-0.100000)"
fill="#000000" stroke="none">
<path d="M1456 5104 c-185 -45 -342 -200 -391 -385 -12 -44 -15 -165 -15 -649
l0 -595 -106 -545 c-125 -641 -132 -710 -91 -842 16 -50 44 -110 72 -151 25
-37 45 -69 45 -71 0 -2 -24 -19 -52 -38 -138 -91 -339 -280 -451 -421 -210
-266 -357 -580 -421 -899 -28 -135 -46 -295 -46 -395 0 -55 4 -67 25 -88 32
-33 78 -33 110 0 22 21 25 33 25 90 0 267 81 585 217 855 181 358 459 645 816
839 42 24 77 39 77 34 0 -4 -12 -59 -26 -122 -14 -63 -33 -170 -42 -239 l-18
-125 -75 -26 c-139 -49 -232 -127 -297 -248 -60 -113 -62 -133 -62 -606 l0
-428 25 -24 c23 -24 31 -25 133 -25 95 0 111 2 130 20 28 27 37 62 21 92 -20
37 -41 47 -96 48 l-53 0 0 370 c0 413 3 435 72 524 168 220 498 181 616 -72
l27 -57 3 -382 3 -383 -56 0 c-46 0 -60 -4 -80 -25 -33 -32 -33 -78 0 -110 23
-24 31 -25 133 -25 95 0 111 2 130 20 12 11 24 31 27 43 4 13 5 216 3 453 -4
414 -4 431 -26 488 -32 85 -66 140 -126 200 -64 64 -129 103 -221 132 -81 26
-76 3 -44 204 31 198 87 394 112 392 5 -1 140 -180 300 -399 206 -280 300
-400 318 -407 58 -20 63 -14 369 404 161 220 296 403 300 405 12 8 220 -83
320 -140 l100 -56 0 -83 c0 -155 60 -320 164 -453 l55 -71 -44 -17 c-102 -38
-260 -166 -319 -257 -10 -16 -25 -28 -33 -28 -28 0 -96 -42 -139 -87 -73 -75
-91 -182 -58 -354 20 -108 53 -176 119 -247 141 -153 365 -186 509 -77 l46 36
33 -24 c71 -55 110 -61 405 -65 307 -4 382 5 460 57 l44 29 57 -40 c175 -120
449 -36 560 172 38 70 71 215 71 305 -1 70 -25 149 -60 192 -30 37 -126 103
-150 103 -9 0 -34 25 -55 55 -64 93 -177 184 -285 230 -25 10 -47 20 -49 22
-2 1 19 33 48 69 110 142 163 298 162 474 0 58 -4 121 -9 140 -8 33 -5 39 40
88 108 120 102 286 -14 401 -106 104 -276 107 -396 6 l-30 -25 -99 26 c-85 23
-118 27 -253 28 -139 1 -166 -2 -263 -27 l-108 -28 -46 40 c-41 36 -119 71
-160 71 -7 0 -13 3 -13 6 0 3 -38 195 -85 428 l-85 422 0 690 c0 656 -1 695
-20 768 -45 178 -161 306 -338 375 l-67 26 -635 2 c-523 1 -645 -1 -694 -13z
m1376 -182 c83 -40 158 -119 190 -200 22 -55 23 -70 26 -374 l3 -318 -920 0
-921 0 0 308 c0 246 3 319 15 359 33 110 129 207 240 243 57 18 90 19 680 17
l620 -2 67 -33z m-807 -1068 c-42 -32 -195 -124 -271 -162 -154 -77 -335 -133
-506 -156 l-38 -5 0 170 0 169 418 0 c377 -1 415 -2 397 -16z m532 -36 c210
-121 392 -287 455 -415 l33 -68 -1 -170 c0 -125 -5 -188 -17 -239 -84 -339
-334 -598 -663 -686 -119 -32 -294 -37 -414 -12 -367 76 -646 354 -721 717
-14 66 -19 134 -19 256 0 183 -1 179 62 179 16 0 74 9 128 20 274 56 566 199
818 401 l86 69 81 0 c79 0 83 -1 172 -52z m493 -65 l0 -116 -72 69 c-40 39
-99 90 -130 113 -32 24 -58 45 -58 47 0 2 59 4 130 4 l130 0 0 -117z m-1945
-970 c13 -53 84 -193 137 -270 89 -130 229 -254 393 -349 15 -8 2 -14 -71 -33
-104 -27 -227 -73 -354 -132 -101 -47 -99 -48 -152 29 -41 59 -68 149 -68 225
0 66 89 557 101 557 4 0 10 -12 14 -27z m2084 -233 c22 -102 39 -185 38 -185
-1 -1 -19 -14 -41 -29 -100 -75 -139 -223 -91 -348 5 -14 -15 -7 -86 26 -105
50 -265 107 -351 126 l-57 13 91 56 c107 65 263 213 327 309 23 35 61 102 84
149 22 47 42 82 44 77 1 -5 20 -92 42 -194z m228 -315 l35 -15 -69 -68 c-38
-37 -78 -82 -88 -100 -11 -17 -23 -32 -27 -32 -17 0 -38 48 -38 88 0 58 26
101 75 123 49 23 66 23 112 4z m1194 -20 c36 -19 69 -70 69 -106 0 -30 -19
-89 -28 -89 -4 1 -23 23 -42 51 -19 28 -57 69 -84 91 -44 39 -47 43 -30 55 24
18 78 16 115 -2z m-423 -54 c227 -66 355 -204 381 -410 34 -273 -148 -548
-423 -637 -117 -38 -259 -38 -371 0 -261 89 -425 312 -425 579 0 248 154 418
435 481 99 22 304 15 403 -13z m-1893 -121 c123 -12 274 -37 294 -50 11 -6
-45 -88 -220 -329 -129 -176 -238 -319 -242 -318 -4 1 -113 146 -242 322 -208
284 -233 320 -215 327 36 13 192 40 279 48 129 11 224 11 346 0z m1350 -1065
c190 -85 424 -87 617 -6 85 36 123 38 209 11 62 -19 169 -82 169 -99 0 -5 -18
-11 -39 -14 -96 -12 -167 -97 -223 -267 -29 -87 -32 -107 -33 -227 -2 -191 -4
-192 -280 -205 -287 -13 -406 -1 -464 47 l-29 25 5 100 c5 83 2 116 -17 196
-46 191 -133 315 -231 330 -23 4 -38 12 -36 18 6 18 108 75 172 96 81 25 112
25 180 -5z m-323 -282 c29 -26 44 -60 73 -160 46 -155 30 -273 -44 -335 -41
-35 -90 -44 -157 -29 -138 31 -215 140 -231 328 -10 121 18 157 148 192 130
35 176 36 211 4z m1468 1 c80 -18 140 -51 157 -84 25 -49 8 -207 -30 -289 -40
-85 -125 -147 -217 -158 -63 -7 -92 1 -134 38 -49 43 -70 111 -63 208 5 83 45
216 79 263 36 51 67 55 208 22z"/>
<path d="M2072 4787 c-20 -21 -22 -34 -22 -125 l0 -102 -103 0 c-95 0 -105 -2
-125 -23 -22 -23 -28 -60 -16 -92 12 -31 59 -45 154 -45 l90 0 0 -94 c0 -111
3 -122 41 -141 40 -21 57 -19 90 14 28 28 29 33 29 125 l0 96 96 0 c93 0 96 1
126 30 25 26 29 36 24 63 -11 56 -35 67 -146 67 l-98 0 -4 106 c-3 97 -5 107
-27 125 -32 26 -82 25 -109 -4z"/>
<path d="M3785 1495 c-52 -51 -15 -135 60 -135 33 0 35 -2 35 -35 0 -46 37
-85 80 -85 43 0 80 39 80 85 0 33 2 35 35 35 46 0 85 37 85 80 0 19 -9 40 -25
55 -23 24 -28 25 -175 25 -147 0 -152 -1 -175 -25z"/>
</g>
</svg>
