<?xml version="1.0" standalone="no"?>
<!DOCTYPE svg PUBLIC "-//W3C//DTD SVG 20010904//EN"
 "http://www.w3.org/TR/2001/REC-SVG-20010904/DTD/svg10.dtd">
<svg version="1.0" xmlns="http://www.w3.org/2000/svg"
 width="512.000000pt" height="512.000000pt" viewBox="0 0 512.000000 512.000000"
 preserveAspectRatio="xMidYMid meet">

<g transform="translate(0.000000,512.000000) scale(0.100000,-0.100000)"
fill="#000000" stroke="none">
<path d="M2499 4490 c-426 -330 -810 -635 -855 -677 -101 -98 -172 -197 -240
-338 -124 -256 -131 -356 -80 -1145 19 -299 34 -546 32 -547 -1 -1 -29 9 -62
22 -107 44 -195 58 -323 52 -136 -6 -233 -33 -351 -98 -89 -50 -228 -185 -279
-271 -148 -253 -148 -553 0 -806 44 -73 188 -217 261 -261 144 -84 270 -115
438 -108 129 5 229 32 337 91 l62 33 5 -36 c3 -20 8 -90 12 -156 3 -66 11
-128 16 -137 13 -25 74 -24 87 1 7 13 7 81 -1 213 l-11 195 61 77 c119 149
172 301 172 490 0 226 -75 401 -239 559 l-71 69 -40 639 c-33 525 -38 654 -30
726 29 260 135 480 315 656 31 30 409 329 841 664 488 379 786 616 790 630 3
11 1 31 -6 42 -27 52 -30 50 -841 -579z m-1324 -2756 c179 -46 343 -181 425
-348 53 -109 70 -180 70 -301 0 -122 -16 -192 -72 -305 -32 -67 -58 -102 -122
-166 -68 -68 -97 -89 -176 -127 -117 -55 -179 -70 -295 -70 -307 -1 -572 205
-651 503 -23 86 -23 244 0 330 96 362 460 576 821 484z"/>
<path d="M872 1454 c-20 -14 -22 -23 -22 -115 l0 -99 -99 0 c-129 0 -131 -2
-131 -155 0 -153 2 -155 131 -155 l99 0 0 -99 c0 -130 2 -131 156 -131 150 0
153 3 156 130 l3 95 95 3 c128 3 130 6 130 157 0 151 -2 154 -130 157 l-95 3
-3 95 c-3 127 -6 130 -156 130 -85 0 -117 -4 -134 -16z m188 -192 c0 -63 4
-102 12 -110 8 -8 47 -12 110 -12 l98 0 0 -55 0 -55 -98 0 c-63 0 -102 -4
-110 -12 -8 -8 -12 -47 -12 -110 l0 -98 -50 0 -50 0 0 89 c0 124 -6 130 -130
133 l-95 3 -3 53 -3 52 100 0 c126 0 131 5 131 132 l0 88 50 0 50 0 0 -98z"/>
<path d="M3185 4185 c-324 -328 -595 -595 -601 -595 -6 0 -19 9 -28 19 -34 38
-116 65 -196 65 -131 0 -234 -63 -292 -182 -63 -127 -38 -269 63 -371 53 -52
120 -84 190 -89 l57 -4 6 -57 c18 -163 142 -279 306 -289 102 -6 175 22 246
92 117 118 126 291 21 438 -10 16 59 89 601 631 336 337 612 617 612 622 0 6
-7 21 -16 33 -38 54 -27 63 -706 -615 -372 -372 -638 -645 -638 -656 0 -10 18
-35 39 -56 22 -21 46 -52 55 -69 85 -164 -69 -356 -250 -311 -65 17 -138 87
-154 149 -11 42 -9 115 5 151 3 9 -3 26 -13 39 -18 22 -21 23 -76 12 -80 -16
-146 -1 -199 47 -154 138 -63 381 144 381 60 0 135 -36 168 -81 14 -19 31 -29
47 -29 21 0 152 125 650 618 344 339 627 627 630 639 9 35 -12 63 -49 63 -29
1 -82 -50 -622 -595z"/>
<path d="M4825 4010 c-11 -4 -369 -312 -796 -683 -656 -571 -785 -687 -837
-756 -93 -123 -155 -265 -182 -416 -12 -70 -190 -1993 -190 -2058 0 -24 5 -48
12 -55 16 -16 63 -15 77 1 6 8 50 444 106 1043 52 566 102 1060 110 1097 34
141 108 280 207 389 24 25 381 340 793 698 413 359 754 662 759 675 17 42 -19
81 -59 65z"/>
<path d="M1710 3087 c-48 -16 -113 -83 -128 -133 -17 -57 -15 -92 8 -159 49
-141 147 -279 265 -371 l75 -59 0 -1035 c0 -921 2 -1038 16 -1058 17 -24 62
-30 82 -10 9 9 12 264 12 1084 l0 1073 -75 56 c-112 84 -190 175 -241 280 -55
113 -58 162 -15 206 32 32 83 39 124 18 12 -7 82 -70 156 -141 151 -147 198
-180 433 -302 91 -48 171 -93 178 -101 19 -23 8 -76 -22 -98 -27 -20 -27 -20
-112 2 -89 22 -110 20 -126 -10 -6 -11 -10 -392 -10 -1026 0 -897 2 -1011 16
-1031 20 -28 69 -30 84 -3 7 13 10 340 10 990 0 770 3 971 13 971 6 0 31 -5
55 -10 152 -35 268 128 188 264 -24 40 -39 51 -203 135 -240 123 -285 154
-444 307 -75 73 -151 140 -169 149 -41 21 -125 27 -170 12z"/>
</g>
</svg>
