<?xml version="1.0" standalone="no"?>
<!DOCTYPE svg PUBLIC "-//W3C//DTD SVG 20010904//EN"
 "http://www.w3.org/TR/2001/REC-SVG-20010904/DTD/svg10.dtd">
<svg version="1.0" xmlns="http://www.w3.org/2000/svg"
 width="512.000000pt" height="512.000000pt" viewBox="0 0 512.000000 512.000000"
 preserveAspectRatio="xMidYMid meet">

<g transform="translate(0.000000,512.000000) scale(0.100000,-0.100000)"
fill="#000000" stroke="none">
<path d="M3045 4679 c-153 -12 -276 -58 -408 -153 l-73 -52 -54 44 c-63 49
-187 112 -275 139 -48 14 -94 18 -225 18 -145 0 -174 -3 -240 -23 -308 -97
-528 -333 -611 -657 -33 -125 -33 -340 -2 -465 64 -256 212 -489 477 -756 174
-175 341 -310 563 -458 222 -147 329 -206 373 -206 43 0 149 59 350 193 237
158 376 270 559 450 260 257 407 480 487 742 26 83 28 104 28 260 1 148 -2
181 -22 254 -119 437 -489 704 -927 670z m289 -229 c276 -92 466 -371 466
-684 0 -118 -16 -200 -59 -312 -130 -337 -537 -746 -1065 -1069 l-108 -66
-125 77 c-265 163 -476 327 -673 524 -232 231 -355 424 -417 652 -24 87 -24
289 0 378 28 106 98 238 168 313 137 150 289 217 494 217 172 0 301 -51 429
-171 60 -56 84 -72 115 -76 36 -5 42 -1 107 57 87 79 157 124 241 156 120 45
299 47 427 4z"/>
<path d="M2437 3979 c-23 -13 -47 -62 -47 -95 0 -19 13 -39 40 -65 l40 -38 0
-231 c0 -263 6 -250 -91 -199 -75 40 -132 102 -171 186 -27 57 -31 79 -37 189
-6 116 -9 126 -36 165 -60 84 -173 115 -234 63 -59 -50 -33 -150 43 -170 25
-6 26 -10 26 -73 1 -278 190 -526 453 -592 l47 -11 0 -139 0 -139 -25 -10
c-14 -5 -34 -24 -45 -42 -27 -43 -20 -84 20 -120 29 -27 34 -28 141 -28 l111
0 34 34 c43 43 47 94 9 131 -13 14 -29 25 -35 25 -6 0 -10 51 -10 144 l0 145
58 16 c252 73 417 285 430 552 4 100 5 102 31 108 84 21 105 122 37 177 -43
35 -141 15 -199 -40 -50 -47 -60 -78 -67 -207 -5 -100 -11 -130 -33 -177 -43
-95 -149 -193 -230 -213 l-27 -7 0 241 c0 161 3 241 10 241 6 0 22 12 35 26
36 39 34 96 -4 135 -29 29 -31 29 -143 29 -62 0 -121 -5 -131 -11z"/>
<path d="M162 4549 c-35 -17 -77 -49 -97 -72 -68 -79 -66 -42 -63 -1068 3
-866 5 -928 22 -989 48 -166 128 -308 234 -415 32 -33 230 -197 440 -365 l381
-305 0 -405 c1 -365 3 -408 19 -440 29 -59 49 -61 457 -58 409 3 405 3 425 79
8 29 10 234 7 688 -3 606 -5 652 -24 736 -39 171 -108 317 -212 447 -31 40
-220 232 -419 427 l-361 353 -3 412 c-3 404 -3 412 -26 456 -52 106 -153 172
-263 174 l-67 1 -7 75 c-17 186 -133 300 -306 300 -65 0 -85 -4 -137 -31z
m201 -189 c15 -12 31 -38 37 -58 14 -52 14 -1205 -1 -1288 -12 -71 5 -161 44
-223 19 -31 588 -636 727 -774 42 -41 54 -47 90 -47 80 0 128 86 83 150 -10
14 -177 191 -372 395 -207 216 -360 384 -369 405 -40 97 77 199 171 148 34
-18 781 -756 833 -823 62 -81 129 -221 156 -330 22 -88 23 -100 23 -685 l0
-595 -250 0 -250 0 -5 390 c-3 215 -9 397 -13 405 -4 8 -195 166 -423 350
-229 184 -438 358 -465 388 -60 66 -113 159 -148 260 l-26 77 -3 913 -3 912
27 25 c35 32 100 34 137 5z m376 -385 l26 -25 3 -335 3 -335 -58 0 c-32 0 -68
-3 -80 -6 l-23 -6 0 360 c0 333 1 362 18 372 26 16 83 4 111 -25z"/>
<path d="M4694 4556 c-106 -49 -167 -143 -179 -276 l-7 -75 -67 -1 c-84 -1
-151 -33 -213 -102 -76 -86 -78 -97 -78 -547 l0 -392 -362 -354 c-199 -195
-387 -387 -419 -427 -102 -127 -170 -269 -211 -441 -20 -81 -21 -121 -25 -737
-3 -460 -1 -663 7 -693 20 -76 16 -76 422 -79 235 -2 371 1 398 8 76 20 74 11
80 479 l5 416 375 302 c206 166 398 324 427 352 116 112 192 244 246 426 21
68 21 93 24 994 4 1026 6 989 -62 1068 -20 23 -62 55 -97 72 -81 41 -185 44
-264 7z m200 -201 l27 -25 -3 -912 -3 -913 -27 -80 c-35 -101 -88 -193 -155
-264 -28 -31 -236 -204 -462 -386 -225 -181 -414 -337 -418 -345 -4 -8 -10
-190 -13 -405 l-5 -390 -250 0 -250 0 0 595 c0 585 1 596 23 685 28 110 94
249 157 330 52 67 798 805 832 823 64 34 150 -2 173 -73 20 -61 1 -92 -163
-263 -247 -256 -247 -256 -247 -300 0 -66 63 -113 125 -92 34 11 391 374 438
446 42 63 61 154 48 228 -15 83 -15 1236 -1 1288 22 76 117 106 174 53z m-403
-355 c18 -10 19 -25 19 -372 l0 -360 -22 6 c-13 3 -49 6 -81 6 l-58 0 3 334
c3 318 4 335 23 356 34 37 79 49 116 30z"/>
<path d="M3859 2196 c-48 -15 -75 -72 -59 -121 15 -44 44 -65 93 -65 83 0 126
94 72 158 -29 35 -60 43 -106 28z"/>
</g>
</svg>
