<?xml version="1.0" standalone="no"?>
<!DOCTYPE svg PUBLIC "-//W3C//DTD SVG 20010904//EN"
 "http://www.w3.org/TR/2001/REC-SVG-20010904/DTD/svg10.dtd">
<svg version="1.0" xmlns="http://www.w3.org/2000/svg"
 width="512.000000pt" height="512.000000pt" viewBox="0 0 512.000000 512.000000"
 preserveAspectRatio="xMidYMid meet">

<g transform="translate(0.000000,512.000000) scale(0.100000,-0.100000)"
fill="#000000" stroke="none">
<path d="M1076 4939 c-20 -15 -26 -29 -26 -58 0 -20 34 -219 75 -441 132 -711
150 -869 150 -1350 0 -363 -8 -480 -51 -780 -50 -353 -112 -605 -260 -1065
-53 -165 -106 -331 -118 -370 l-22 -70 -308 -5 -308 -5 -24 -28 c-13 -15 -24
-34 -24 -40 0 -24 87 -272 114 -324 33 -65 115 -149 182 -185 113 -61 8 -58
1859 -58 1514 1 1762 4 1781 23 3 3 -4 36 -16 73 l-20 69 -88 0 c-75 0 -95 4
-144 28 -94 46 -129 96 -184 260 -29 86 -56 150 -70 164 l-23 23 -1282 0
c-1044 0 -1280 2 -1276 13 29 76 210 653 248 791 84 306 146 651 181 1001 17
174 17 798 0 970 -22 214 -58 451 -127 826 -36 195 -67 364 -70 377 l-5 22
1678 0 1678 0 72 -392 c106 -575 122 -682 143 -1013 14 -213 6 -600 -16 -824
-8 -85 -14 -156 -12 -157 5 -5 149 -25 153 -21 10 10 36 371 41 572 8 339 -14
673 -68 1005 -36 229 -169 932 -179 951 -6 10 -19 23 -30 29 -12 7 -604 10
-1798 10 l-1779 0 -27 -21z m2418 -4387 c32 -98 57 -152 93 -200 l24 -32
-1503 2 -1503 3 -57 28 c-80 39 -131 101 -162 195 -14 43 -26 80 -26 85 0 4
699 7 1553 7 l1553 0 28 -88z"/>
<path d="M2480 4480 l0 -80 640 0 640 0 0 80 0 80 -640 0 -640 0 0 -80z"/>
<path d="M1840 4227 c-49 -16 -133 -102 -148 -153 -17 -57 -17 -571 0 -628 16
-55 99 -138 154 -154 28 -8 130 -12 316 -12 323 0 343 4 411 80 57 64 67 101
67 264 l0 136 -80 0 -80 0 0 -135 c0 -131 -1 -137 -25 -160 l-24 -25 -271 0
-271 0 -24 25 -25 24 0 271 0 271 25 24 c24 25 27 25 200 25 l175 0 0 80 0 80
-182 -1 c-103 -1 -198 -6 -218 -12z"/>
<path d="M2328 3963 l-168 -168 -48 48 c-26 26 -52 47 -58 47 -13 0 -104 -93
-104 -106 0 -6 40 -49 89 -97 129 -127 108 -134 363 120 114 114 208 212 208
218 0 13 -92 105 -105 105 -6 0 -85 -75 -177 -167z"/>
<path d="M2800 3920 l0 -80 880 0 880 0 0 80 0 80 -880 0 -880 0 0 -80z"/>
<path d="M2800 3600 l0 -80 520 0 520 0 0 80 0 80 -520 0 -520 0 0 -80z"/>
<path d="M1760 3107 c-49 -16 -133 -102 -148 -153 -17 -57 -17 -571 0 -628 16
-55 99 -138 154 -154 28 -8 130 -12 316 -12 323 0 343 4 411 80 57 64 67 101
67 264 l0 136 -80 0 -80 0 0 -135 c0 -131 -1 -137 -25 -160 l-24 -25 -271 0
-271 0 -24 25 -25 24 0 271 0 271 25 24 c24 25 27 25 200 25 l175 0 0 80 0 80
-182 -1 c-103 -1 -198 -6 -218 -12z"/>
<path d="M2248 2843 l-168 -168 -48 48 c-26 26 -52 47 -58 47 -13 0 -104 -93
-104 -106 0 -6 40 -49 89 -97 129 -127 108 -134 363 120 114 114 208 212 208
218 0 13 -92 105 -105 105 -6 0 -85 -75 -177 -167z"/>
<path d="M2720 2800 l0 -80 880 0 880 0 0 80 0 80 -880 0 -880 0 0 -80z"/>
<path d="M2720 2480 l0 -80 560 0 560 0 0 80 0 80 -560 0 -560 0 0 -80z"/>
<path d="M3497 2226 c-60 -22 -108 -65 -132 -120 -30 -65 -100 -492 -90 -544
15 -81 67 -146 145 -181 41 -19 65 -21 288 -21 l244 0 -6 -27 c-3 -16 -13 -72
-22 -125 -14 -88 -14 -102 0 -150 30 -104 109 -167 224 -176 62 -5 63 -5 58
-31 -20 -99 -37 -284 -32 -335 14 -133 98 -251 223 -313 71 -35 81 -37 192
-41 183 -7 150 -106 286 841 63 439 115 821 115 848 0 27 -9 77 -21 111 -38
114 -106 188 -219 242 l-65 31 -575 2 c-464 2 -582 0 -613 -11z m207 -408
c-24 -145 -43 -271 -44 -280 0 -16 -11 -18 -80 -18 -158 0 -161 6 -115 293 44
275 38 267 184 267 l97 0 -42 -262z m967 247 c84 -30 158 -130 159 -214 1 -14
-48 -365 -107 -778 l-108 -753 -39 0 c-69 0 -118 21 -172 75 -88 87 -87 76
-20 585 31 239 57 449 56 467 0 22 -8 38 -26 52 -26 20 -39 21 -310 21 -156 0
-284 2 -284 5 0 10 80 510 85 533 l5 22 359 0 c297 0 366 -3 402 -15z m-401
-718 c0 -7 -9 -78 -20 -157 -11 -79 -20 -145 -20 -147 0 -11 -100 0 -118 13
-39 27 -43 54 -22 176 11 62 20 116 20 121 0 4 36 7 80 7 59 0 80 -3 80 -13z"/>
<path d="M2880 2080 l0 -80 80 0 80 0 0 80 0 80 -80 0 -80 0 0 -80z"/>
<path d="M2480 1916 l0 -84 -42 -16 -41 -17 -46 45 c-26 25 -51 46 -57 46 -12
0 -104 -92 -104 -105 0 -5 21 -30 46 -56 l45 -46 -17 -41 -16 -42 -84 0 -84 0
0 -80 0 -80 84 0 84 0 16 -42 17 -41 -45 -46 c-25 -26 -46 -51 -46 -57 0 -6
25 -32 56 -58 l56 -49 47 47 48 47 41 -17 42 -16 0 -84 0 -84 80 0 80 0 0 83
0 84 40 18 41 18 49 -48 48 -48 56 49 c31 26 56 52 56 58 0 6 -21 32 -47 58
l-46 47 18 41 18 40 84 0 83 0 0 80 0 80 -84 0 -84 0 -16 42 -17 41 45 46 c25
26 46 51 46 57 0 12 -92 104 -105 104 -5 0 -30 -21 -56 -46 l-46 -45 -41 17
-42 16 0 84 0 84 -80 0 -80 0 0 -84z m143 -250 c103 -43 128 -177 48 -257 -65
-65 -157 -65 -222 0 -124 123 13 325 174 257z"/>
<path d="M1600 1760 l0 -80 80 0 80 0 0 80 0 80 -80 0 -80 0 0 -80z"/>
<path d="M1680 1360 l0 -80 80 0 80 0 0 80 0 80 -80 0 -80 0 0 -80z"/>
<path d="M3120 1120 l0 -80 80 0 80 0 0 80 0 80 -80 0 -80 0 0 -80z"/>
<path d="M1920 1040 l0 -80 80 0 80 0 0 80 0 80 -80 0 -80 0 0 -80z"/>
</g>
</svg>
